<?xml version="1.0" encoding="UTF-8" standalone="no"?>
<!-- Created with Inkscape (http://www.inkscape.org/) -->

<svg
   version="1.1"
   id="svg1"
   width="397.38132"
   height="472.97198"
   viewBox="0 0 397.38132 472.97198"
   xmlns="http://www.w3.org/2000/svg"
   xmlns:svg="http://www.w3.org/2000/svg">
  <defs
     id="defs1" />
  <g
     id="g1">
    <path
       id="path1"
       d="M 0,0 H 298.036 V 354.729 H 0 Z"
       style="fill:#111c22;fill-opacity:1;fill-rule:nonzero;stroke:none"
       transform="matrix(1.3333333,0,0,-1.3333333,0,472.972)" />
    <path
       id="path2"
       d="M -28.3468,28.34682 H 28.34682 V 56.69361 H -28.3468 Z"
       style="fill:#79d2a6;fill-opacity:1;fill-rule:nonzero;stroke:#5b9e7d;stroke-width:0.3985;stroke-linecap:butt;stroke-linejoin:miter;stroke-miterlimit:10;stroke-dasharray:none;stroke-opacity:1"
       transform="matrix(1.3333333,0,0,-1.3333333,56.958667,94.753333)" />
    <text
       id="text2"
       xml:space="preserve"
       transform="matrix(1.3333333,0,0,1.3333333,33.048,42.729333)"><tspan
         style="font-variant:normal;font-weight:normal;font-size:9.9626px;font-family:'PT Mono';writing-mode:lr-tb;fill:#3d6953;fill-opacity:1;fill-rule:nonzero;stroke:none"
         x="0 5.97756 11.95512 17.93268 23.91024 29.8878"
         y="0"
         id="tspan2">79D2A6</tspan></text>
    <path
       id="path3"
       d="M 42.52023,28.34682 H 99.21385 V 56.69361 H 42.52023 Z"
       style="fill:#9fdfbf;fill-opacity:1;fill-rule:nonzero;stroke:#77a78f;stroke-width:0.3985;stroke-linecap:butt;stroke-linejoin:miter;stroke-miterlimit:10;stroke-dasharray:none;stroke-opacity:1"
       transform="matrix(1.3333333,0,0,-1.3333333,56.958667,94.753333)" />
    <text
       id="text3"
       xml:space="preserve"
       transform="matrix(1.3333333,0,0,1.3333333,127.536,42.729333)"><tspan
         style="font-variant:normal;font-weight:normal;font-size:9.9626px;font-family:'PT Mono';writing-mode:lr-tb;fill:#50705f;fill-opacity:1;fill-rule:nonzero;stroke:none"
         x="0 5.97756 11.95512 17.93268 23.91024 29.8878"
         y="0"
         id="tspan3">9FDFBF</tspan></text>
    <path
       id="path4"
       d="m 113.3873,28.34682 h 56.69362 V 56.69361 H 113.3873 Z"
       style="fill:#c6ecd9;fill-opacity:1;fill-rule:nonzero;stroke:#94b1a3;stroke-width:0.3985;stroke-linecap:butt;stroke-linejoin:miter;stroke-miterlimit:10;stroke-dasharray:none;stroke-opacity:1"
       transform="matrix(1.3333333,0,0,-1.3333333,56.958667,94.753333)" />
    <text
       id="text4"
       xml:space="preserve"
       transform="matrix(1.3333333,0,0,1.3333333,222.024,42.729333)"><tspan
         style="font-variant:normal;font-weight:normal;font-size:9.9626px;font-family:'PT Mono';writing-mode:lr-tb;fill:#63766c;fill-opacity:1;fill-rule:nonzero;stroke:none"
         x="0 5.97756 11.95512 17.93268 23.91024 29.8878"
         y="0"
         id="tspan4">C6ECD9</tspan></text>
    <path
       id="path5"
       d="m 184.25433,28.34682 h 56.69362 v 28.34679 h -56.69362 z"
       style="fill:#d9f2e6;fill-opacity:1;fill-rule:nonzero;stroke:#a3b5ad;stroke-width:0.3985;stroke-linecap:butt;stroke-linejoin:miter;stroke-miterlimit:10;stroke-dasharray:none;stroke-opacity:1"
       transform="matrix(1.3333333,0,0,-1.3333333,56.958667,94.753333)" />
    <text
       id="text5"
       xml:space="preserve"
       transform="matrix(1.3333333,0,0,1.3333333,316.51333,42.729333)"><tspan
         style="font-variant:normal;font-weight:normal;font-size:9.9626px;font-family:'PT Mono';writing-mode:lr-tb;fill:#6c7973;fill-opacity:1;fill-rule:nonzero;stroke:none"
         x="0 5.97756 11.95512 17.93268 23.91024 29.8878"
         y="0"
         id="tspan5">D9F2E6</tspan></text>
    <path
       id="path6"
       d="M -28.3468,-14.17339 H 28.34682 V 14.1734 H -28.3468 Z"
       style="fill:#090e11;fill-opacity:1;fill-rule:nonzero;stroke:#464a4c;stroke-width:0.3985;stroke-linecap:butt;stroke-linejoin:miter;stroke-miterlimit:10;stroke-dasharray:none;stroke-opacity:1"
       transform="matrix(1.3333333,0,0,-1.3333333,56.958667,94.753333)" />
    <text
       id="text6"
       xml:space="preserve"
       transform="matrix(1.3333333,0,0,1.3333333,33.048,99.422667)"><tspan
         style="font-variant:normal;font-weight:normal;font-size:9.9626px;font-family:'PT Mono';writing-mode:lr-tb;fill:#848688;fill-opacity:1;fill-rule:nonzero;stroke:none"
         x="0 5.97756 11.95512 17.93268 23.91024 29.8878"
         y="0"
         id="tspan6">090E11</tspan></text>
    <path
       id="path7"
       d="M 42.52023,-14.17339 H 99.21385 V 14.1734 H 42.52023 Z"
       style="fill:#111c22;fill-opacity:1;fill-rule:nonzero;stroke:#4c5559;stroke-width:0.3985;stroke-linecap:butt;stroke-linejoin:miter;stroke-miterlimit:10;stroke-dasharray:none;stroke-opacity:1"
       transform="matrix(1.3333333,0,0,-1.3333333,56.958667,94.753333)" />
    <text
       id="text7"
       xml:space="preserve"
       transform="matrix(1.3333333,0,0,1.3333333,127.536,99.422667)"><tspan
         style="font-variant:normal;font-weight:normal;font-size:9.9626px;font-family:'PT Mono';writing-mode:lr-tb;fill:#888d91;fill-opacity:1;fill-rule:nonzero;stroke:none"
         x="0 5.97756 11.95512 17.93268 23.91024 29.8878"
         y="0"
         id="tspan7">111C22</tspan></text>
    <path
       id="path8"
       d="m 113.3873,-14.17339 h 56.69362 V 14.1734 H 113.3873 Z"
       style="fill:#1a2a33;fill-opacity:1;fill-rule:nonzero;stroke:#535f66;stroke-width:0.3985;stroke-linecap:butt;stroke-linejoin:miter;stroke-miterlimit:10;stroke-dasharray:none;stroke-opacity:1"
       transform="matrix(1.3333333,0,0,-1.3333333,56.958667,94.753333)" />
    <text
       id="text8"
       xml:space="preserve"
       transform="matrix(1.3333333,0,0,1.3333333,222.024,99.422667)"><tspan
         style="font-variant:normal;font-weight:normal;font-size:9.9626px;font-family:'PT Mono';writing-mode:lr-tb;fill:#8d9599;fill-opacity:1;fill-rule:nonzero;stroke:none"
         x="0 5.97756 11.95512 17.93268 23.91024 29.8878"
         y="0"
         id="tspan8">1A2A33</tspan></text>
    <path
       id="path9"
       d="m 184.25433,-14.17339 h 56.69362 V 14.1734 h -56.69362 z"
       style="fill:#223844;fill-opacity:1;fill-rule:nonzero;stroke:#596a73;stroke-width:0.3985;stroke-linecap:butt;stroke-linejoin:miter;stroke-miterlimit:10;stroke-dasharray:none;stroke-opacity:1"
       transform="matrix(1.3333333,0,0,-1.3333333,56.958667,94.753333)" />
    <text
       id="text9"
       xml:space="preserve"
       transform="matrix(1.3333333,0,0,1.3333333,316.51333,99.422667)"><tspan
         style="font-variant:normal;font-weight:normal;font-size:9.9626px;font-family:'PT Mono';writing-mode:lr-tb;fill:#919ca2;fill-opacity:1;fill-rule:nonzero;stroke:none"
         x="0 5.97756 11.95512 17.93268 23.91024 29.8878"
         y="0"
         id="tspan9">223844</tspan></text>
    <path
       id="path10"
       d="m -28.3468,-56.69362 h 56.69362 v 28.34679 H -28.3468 Z"
       style="fill:#a33d29;fill-opacity:1;fill-rule:nonzero;stroke:#ba6d5e;stroke-width:0.3985;stroke-linecap:butt;stroke-linejoin:miter;stroke-miterlimit:10;stroke-dasharray:none;stroke-opacity:1"
       transform="matrix(1.3333333,0,0,-1.3333333,56.958667,94.753333)" />
    <text
       id="text10"
       xml:space="preserve"
       transform="matrix(1.3333333,0,0,1.3333333,33.048,156.116)"><tspan
         style="font-variant:normal;font-weight:normal;font-size:9.9626px;font-family:'PT Mono';writing-mode:lr-tb;fill:#d19e94;fill-opacity:1;fill-rule:nonzero;stroke:none"
         x="0 5.97756 11.95512 17.93268 23.91024 29.8878"
         y="0"
         id="tspan10">A33D29</tspan></text>
    <path
       id="path11"
       d="m 42.52023,-56.69362 h 56.69362 v 28.34679 H 42.52023 Z"
       style="fill:#dd573c;fill-opacity:1;fill-rule:nonzero;stroke:#a6412d;stroke-width:0.3985;stroke-linecap:butt;stroke-linejoin:miter;stroke-miterlimit:10;stroke-dasharray:none;stroke-opacity:1"
       transform="matrix(1.3333333,0,0,-1.3333333,56.958667,94.753333)" />
    <text
       id="text11"
       xml:space="preserve"
       transform="matrix(1.3333333,0,0,1.3333333,127.536,156.116)"><tspan
         style="font-variant:normal;font-weight:normal;font-size:9.9626px;font-family:'PT Mono';writing-mode:lr-tb;fill:#6e2c1e;fill-opacity:1;fill-rule:nonzero;stroke:none"
         x="0 5.97756 11.95512 17.93268 23.91024 29.8878"
         y="0"
         id="tspan11">DD573C</tspan></text>
    <path
       id="path12"
       d="m 113.3873,-56.69362 h 56.69362 v 28.34679 H 113.3873 Z"
       style="fill:#d15e47;fill-opacity:1;fill-rule:nonzero;stroke:#9d4635;stroke-width:0.3985;stroke-linecap:butt;stroke-linejoin:miter;stroke-miterlimit:10;stroke-dasharray:none;stroke-opacity:1"
       transform="matrix(1.3333333,0,0,-1.3333333,56.958667,94.753333)" />
    <text
       id="text12"
       xml:space="preserve"
       transform="matrix(1.3333333,0,0,1.3333333,222.024,156.03867)"><tspan
         style="font-variant:normal;font-weight:normal;font-size:9.9626px;font-family:'PT Mono';writing-mode:lr-tb;fill:#682f23;fill-opacity:1;fill-rule:nonzero;stroke:none"
         x="0 5.97756 11.95512 17.93268 23.91024 29.8878"
         y="0"
         id="tspan12">D15E47</tspan></text>
    <path
       id="path13"
       d="m 184.25433,-56.69362 h 56.69362 v 28.34679 h -56.69362 z"
       style="fill:#db8270;fill-opacity:1;fill-rule:nonzero;stroke:#a46154;stroke-width:0.3985;stroke-linecap:butt;stroke-linejoin:miter;stroke-miterlimit:10;stroke-dasharray:none;stroke-opacity:1"
       transform="matrix(1.3333333,0,0,-1.3333333,56.958667,94.753333)" />
    <text
       id="text13"
       xml:space="preserve"
       transform="matrix(1.3333333,0,0,1.3333333,316.51333,156.116)"><tspan
         style="font-variant:normal;font-weight:normal;font-size:9.9626px;font-family:'PT Mono';writing-mode:lr-tb;fill:#6d4138;fill-opacity:1;fill-rule:nonzero;stroke:none"
         x="0 5.97756 11.95512 17.93268 23.91024 29.8878"
         y="0"
         id="tspan13">DB8270</tspan></text>
    <path
       id="path14"
       d="m -28.3468,-99.21385 h 56.69362 v 28.34679 H -28.3468 Z"
       style="fill:#479438;fill-opacity:1;fill-rule:nonzero;stroke:#75af6a;stroke-width:0.3985;stroke-linecap:butt;stroke-linejoin:miter;stroke-miterlimit:10;stroke-dasharray:none;stroke-opacity:1"
       transform="matrix(1.3333333,0,0,-1.3333333,56.958667,94.753333)" />
    <text
       id="text14"
       xml:space="preserve"
       transform="matrix(1.3333333,0,0,1.3333333,33.048,212.808)"><tspan
         style="font-variant:normal;font-weight:normal;font-size:9.9626px;font-family:'PT Mono';writing-mode:lr-tb;fill:#a3c99c;fill-opacity:1;fill-rule:nonzero;stroke:none"
         x="0 5.97756 11.95512 17.93268 23.91024 29.8878"
         y="0"
         id="tspan14">479438</tspan></text>
    <path
       id="path15"
       d="m 42.52023,-99.21385 h 56.69362 v 28.34679 H 42.52023 Z"
       style="fill:#60cb4d;fill-opacity:1;fill-rule:nonzero;stroke:#48983a;stroke-width:0.3985;stroke-linecap:butt;stroke-linejoin:miter;stroke-miterlimit:10;stroke-dasharray:none;stroke-opacity:1"
       transform="matrix(1.3333333,0,0,-1.3333333,56.958667,94.753333)" />
    <text
       id="text15"
       xml:space="preserve"
       transform="matrix(1.3333333,0,0,1.3333333,127.536,212.808)"><tspan
         style="font-variant:normal;font-weight:normal;font-size:9.9626px;font-family:'PT Mono';writing-mode:lr-tb;fill:#306526;fill-opacity:1;fill-rule:nonzero;stroke:none"
         x="0 5.97756 11.95512 17.93268 23.91024 29.8878"
         y="0"
         id="tspan15">60CB4D</tspan></text>
    <path
       id="path16"
       d="m 113.3873,-99.21385 h 56.69362 v 28.34679 H 113.3873 Z"
       style="fill:#8bce7e;fill-opacity:1;fill-rule:nonzero;stroke:#689a5e;stroke-width:0.3985;stroke-linecap:butt;stroke-linejoin:miter;stroke-miterlimit:10;stroke-dasharray:none;stroke-opacity:1"
       transform="matrix(1.3333333,0,0,-1.3333333,56.958667,94.753333)" />
    <text
       id="text16"
       xml:space="preserve"
       transform="matrix(1.3333333,0,0,1.3333333,222.024,212.808)"><tspan
         style="font-variant:normal;font-weight:normal;font-size:9.9626px;font-family:'PT Mono';writing-mode:lr-tb;fill:#45673f;fill-opacity:1;fill-rule:nonzero;stroke:none"
         x="0 5.97756 11.95512 17.93268 23.91024 29.8878"
         y="0"
         id="tspan16">8BCE7E</tspan></text>
    <path
       id="path17"
       d="m 184.25433,-99.21385 h 56.69362 v 28.34679 h -56.69362 z"
       style="fill:#acdca3;fill-opacity:1;fill-rule:nonzero;stroke:#81a57a;stroke-width:0.3985;stroke-linecap:butt;stroke-linejoin:miter;stroke-miterlimit:10;stroke-dasharray:none;stroke-opacity:1"
       transform="matrix(1.3333333,0,0,-1.3333333,56.958667,94.753333)" />
    <text
       id="text17"
       xml:space="preserve"
       transform="matrix(1.3333333,0,0,1.3333333,316.51333,212.808)"><tspan
         style="font-variant:normal;font-weight:normal;font-size:9.9626px;font-family:'PT Mono';writing-mode:lr-tb;fill:#566e51;fill-opacity:1;fill-rule:nonzero;stroke:none"
         x="0 5.97756 11.95512 17.93268 23.91024 29.8878"
         y="0"
         id="tspan17">ACDCA3</tspan></text>
    <path
       id="path18"
       d="m -28.3468,-141.73409 h 56.69362 v 28.34679 H -28.3468 Z"
       style="fill:#a87c24;fill-opacity:1;fill-rule:nonzero;stroke:#be9d5b;stroke-width:0.3985;stroke-linecap:butt;stroke-linejoin:miter;stroke-miterlimit:10;stroke-dasharray:none;stroke-opacity:1"
       transform="matrix(1.3333333,0,0,-1.3333333,56.958667,94.753333)" />
    <text
       id="text18"
       xml:space="preserve"
       transform="matrix(1.3333333,0,0,1.3333333,33.048,269.50133)"><tspan
         style="font-variant:normal;font-weight:normal;font-size:9.9626px;font-family:'PT Mono';writing-mode:lr-tb;fill:#d3bd92;fill-opacity:1;fill-rule:nonzero;stroke:none"
         x="0 5.97756 11.95512 17.93268 23.91024 29.8878"
         y="0"
         id="tspan18">A87C24</tspan></text>
    <path
       id="path19"
       d="m 42.52023,-141.73409 h 56.69362 v 28.34679 H 42.52023 Z"
       style="fill:#e2a936;fill-opacity:1;fill-rule:nonzero;stroke:#a97f28;stroke-width:0.3985;stroke-linecap:butt;stroke-linejoin:miter;stroke-miterlimit:10;stroke-dasharray:none;stroke-opacity:1"
       transform="matrix(1.3333333,0,0,-1.3333333,56.958667,94.753333)" />
    <text
       id="text19"
       xml:space="preserve"
       transform="matrix(1.3333333,0,0,1.3333333,127.536,269.50133)"><tspan
         style="font-variant:normal;font-weight:normal;font-size:9.9626px;font-family:'PT Mono';writing-mode:lr-tb;fill:#71551b;fill-opacity:1;fill-rule:nonzero;stroke:none"
         x="0 5.97756 11.95512 17.93268 23.91024 29.8878"
         y="0"
         id="tspan19">E2A936</tspan></text>
    <path
       id="path20"
       d="m 113.3873,-141.73409 h 56.69362 v 28.34679 H 113.3873 Z"
       style="fill:#e0b96c;fill-opacity:1;fill-rule:nonzero;stroke:#a88b51;stroke-width:0.3985;stroke-linecap:butt;stroke-linejoin:miter;stroke-miterlimit:10;stroke-dasharray:none;stroke-opacity:1"
       transform="matrix(1.3333333,0,0,-1.3333333,56.958667,94.753333)" />
    <text
       id="text20"
       xml:space="preserve"
       transform="matrix(1.3333333,0,0,1.3333333,222.024,269.50133)"><tspan
         style="font-variant:normal;font-weight:normal;font-size:9.9626px;font-family:'PT Mono';writing-mode:lr-tb;fill:#705d36;fill-opacity:1;fill-rule:nonzero;stroke:none"
         x="0 5.97756 11.95512 17.93268 23.91024 29.8878"
         y="0"
         id="tspan20">E0B96C</tspan></text>
    <path
       id="path21"
       d="m 184.25433,-141.73409 h 56.69362 v 28.34679 h -56.69362 z"
       style="fill:#e9cd96;fill-opacity:1;fill-rule:nonzero;stroke:#af9a71;stroke-width:0.3985;stroke-linecap:butt;stroke-linejoin:miter;stroke-miterlimit:10;stroke-dasharray:none;stroke-opacity:1"
       transform="matrix(1.3333333,0,0,-1.3333333,56.958667,94.753333)" />
    <text
       id="text21"
       xml:space="preserve"
       transform="matrix(1.3333333,0,0,1.3333333,316.51333,269.50133)"><tspan
         style="font-variant:normal;font-weight:normal;font-size:9.9626px;font-family:'PT Mono';writing-mode:lr-tb;fill:#74664b;fill-opacity:1;fill-rule:nonzero;stroke:none"
         x="0 5.97756 11.95512 17.93268 23.91024 29.8878"
         y="0"
         id="tspan21">E9CD96</tspan></text>
    <path
       id="path22"
       d="m -28.3468,-184.2543 h 56.69362 v 28.34679 H -28.3468 Z"
       style="fill:#386694;fill-opacity:1;fill-rule:nonzero;stroke:#6a8caf;stroke-width:0.3985;stroke-linecap:butt;stroke-linejoin:miter;stroke-miterlimit:10;stroke-dasharray:none;stroke-opacity:1"
       transform="matrix(1.3333333,0,0,-1.3333333,56.958667,94.753333)" />
    <text
       id="text22"
       xml:space="preserve"
       transform="matrix(1.3333333,0,0,1.3333333,33.048,326.19467)"><tspan
         style="font-variant:normal;font-weight:normal;font-size:9.9626px;font-family:'PT Mono';writing-mode:lr-tb;fill:#9cb3c9;fill-opacity:1;fill-rule:nonzero;stroke:none"
         x="0 5.97756 11.95512 17.93268 23.91024 29.8878"
         y="0"
         id="tspan22">386694</tspan></text>
    <path
       id="path23"
       d="m 42.52023,-184.2543 h 56.69362 v 28.34679 H 42.52023 Z"
       style="fill:#428cd7;fill-opacity:1;fill-rule:nonzero;stroke:#3169a1;stroke-width:0.3985;stroke-linecap:butt;stroke-linejoin:miter;stroke-miterlimit:10;stroke-dasharray:none;stroke-opacity:1"
       transform="matrix(1.3333333,0,0,-1.3333333,56.958667,94.753333)" />
    <text
       id="text23"
       xml:space="preserve"
       transform="matrix(1.3333333,0,0,1.3333333,127.536,326.19467)"><tspan
         style="font-variant:normal;font-weight:normal;font-size:9.9626px;font-family:'PT Mono';writing-mode:lr-tb;fill:#21466c;fill-opacity:1;fill-rule:nonzero;stroke:none"
         x="0 5.97756 11.95512 17.93268 23.91024 29.8878"
         y="0"
         id="tspan23">428CD7</tspan></text>
    <path
       id="path24"
       d="m 113.3873,-184.2543 h 56.69362 v 28.34679 H 113.3873 Z"
       style="fill:#7ea6ce;fill-opacity:1;fill-rule:nonzero;stroke:#5e7d9a;stroke-width:0.3985;stroke-linecap:butt;stroke-linejoin:miter;stroke-miterlimit:10;stroke-dasharray:none;stroke-opacity:1"
       transform="matrix(1.3333333,0,0,-1.3333333,56.958667,94.753333)" />
    <text
       id="text24"
       xml:space="preserve"
       transform="matrix(1.3333333,0,0,1.3333333,222.024,326.19467)"><tspan
         style="font-variant:normal;font-weight:normal;font-size:9.9626px;font-family:'PT Mono';writing-mode:lr-tb;fill:#3f5367;fill-opacity:1;fill-rule:nonzero;stroke:none"
         x="0 5.97756 11.95512 17.93268 23.91024 29.8878"
         y="0"
         id="tspan24">7EA6CE</tspan></text>
    <path
       id="path25"
       d="m 184.25433,-184.2543 h 56.69362 v 28.34679 h -56.69362 z"
       style="fill:#a3bfdc;fill-opacity:1;fill-rule:nonzero;stroke:#7a8fa5;stroke-width:0.3985;stroke-linecap:butt;stroke-linejoin:miter;stroke-miterlimit:10;stroke-dasharray:none;stroke-opacity:1"
       transform="matrix(1.3333333,0,0,-1.3333333,56.958667,94.753333)" />
    <text
       id="text25"
       xml:space="preserve"
       transform="matrix(1.3333333,0,0,1.3333333,316.51333,326.19467)"><tspan
         style="font-variant:normal;font-weight:normal;font-size:9.9626px;font-family:'PT Mono';writing-mode:lr-tb;fill:#515f6e;fill-opacity:1;fill-rule:nonzero;stroke:none"
         x="0 5.97756 11.95512 17.93268 23.91024 29.8878"
         y="0"
         id="tspan25">A3BFDC</tspan></text>
    <path
       id="path26"
       d="m -28.3468,-226.77455 h 56.69362 v 28.34679 H -28.3468 Z"
       style="fill:#a63f73;fill-opacity:1;fill-rule:nonzero;stroke:#bc6f96;stroke-width:0.3985;stroke-linecap:butt;stroke-linejoin:miter;stroke-miterlimit:10;stroke-dasharray:none;stroke-opacity:1"
       transform="matrix(1.3333333,0,0,-1.3333333,56.958667,94.753333)" />
    <text
       id="text26"
       xml:space="preserve"
       transform="matrix(1.3333333,0,0,1.3333333,33.048,382.88667)"><tspan
         style="font-variant:normal;font-weight:normal;font-size:9.9626px;font-family:'PT Mono';writing-mode:lr-tb;fill:#d39fb9;fill-opacity:1;fill-rule:nonzero;stroke:none"
         x="0 5.97756 11.95512 17.93268 23.91024 29.8878"
         y="0"
         id="tspan26">A63F73</tspan></text>
    <path
       id="path27"
       d="m 42.52023,-226.77455 h 56.69362 v 28.34679 H 42.52023 Z"
       style="fill:#d7428c;fill-opacity:1;fill-rule:nonzero;stroke:#a13169;stroke-width:0.3985;stroke-linecap:butt;stroke-linejoin:miter;stroke-miterlimit:10;stroke-dasharray:none;stroke-opacity:1"
       transform="matrix(1.3333333,0,0,-1.3333333,56.958667,94.753333)" />
    <text
       id="text27"
       xml:space="preserve"
       transform="matrix(1.3333333,0,0,1.3333333,127.536,382.88667)"><tspan
         style="font-variant:normal;font-weight:normal;font-size:9.9626px;font-family:'PT Mono';writing-mode:lr-tb;fill:#6c2146;fill-opacity:1;fill-rule:nonzero;stroke:none"
         x="0 5.97756 11.95512 17.93268 23.91024 29.8878"
         y="0"
         id="tspan27">D7428C</tspan></text>
    <path
       id="path28"
       d="m 113.3873,-226.77455 h 56.69362 v 28.34679 H 113.3873 Z"
       style="fill:#ce7ea6;fill-opacity:1;fill-rule:nonzero;stroke:#9a5e7d;stroke-width:0.3985;stroke-linecap:butt;stroke-linejoin:miter;stroke-miterlimit:10;stroke-dasharray:none;stroke-opacity:1"
       transform="matrix(1.3333333,0,0,-1.3333333,56.958667,94.753333)" />
    <text
       id="text28"
       xml:space="preserve"
       transform="matrix(1.3333333,0,0,1.3333333,222.024,382.88667)"><tspan
         style="font-variant:normal;font-weight:normal;font-size:9.9626px;font-family:'PT Mono';writing-mode:lr-tb;fill:#673f53;fill-opacity:1;fill-rule:nonzero;stroke:none"
         x="0 5.97756 11.95512 17.93268 23.91024 29.8878"
         y="0"
         id="tspan28">CE7EA6</tspan></text>
    <path
       id="path29"
       d="m 184.25433,-226.77455 h 56.69362 v 28.34679 h -56.69362 z"
       style="fill:#dca3bf;fill-opacity:1;fill-rule:nonzero;stroke:#a57a8f;stroke-width:0.3985;stroke-linecap:butt;stroke-linejoin:miter;stroke-miterlimit:10;stroke-dasharray:none;stroke-opacity:1"
       transform="matrix(1.3333333,0,0,-1.3333333,56.958667,94.753333)" />
    <text
       id="text29"
       xml:space="preserve"
       transform="matrix(1.3333333,0,0,1.3333333,316.51333,382.88667)"><tspan
         style="font-variant:normal;font-weight:normal;font-size:9.9626px;font-family:'PT Mono';writing-mode:lr-tb;fill:#6e515f;fill-opacity:1;fill-rule:nonzero;stroke:none"
         x="0 5.97756 11.95512 17.93268 23.91024 29.8878"
         y="0"
         id="tspan29">DCA3BF</tspan></text>
    <path
       id="path30"
       d="m -28.3468,-269.29478 h 56.69362 v 28.34679 H -28.3468 Z"
       style="fill:#3fa695;fill-opacity:1;fill-rule:nonzero;stroke:#6fbcaf;stroke-width:0.3985;stroke-linecap:butt;stroke-linejoin:miter;stroke-miterlimit:10;stroke-dasharray:none;stroke-opacity:1"
       transform="matrix(1.3333333,0,0,-1.3333333,56.958667,94.753333)" />
    <text
       id="text30"
       xml:space="preserve"
       transform="matrix(1.3333333,0,0,1.3333333,33.048,439.58)"><tspan
         style="font-variant:normal;font-weight:normal;font-size:9.9626px;font-family:'PT Mono';writing-mode:lr-tb;fill:#9fd3ca;fill-opacity:1;fill-rule:nonzero;stroke:none"
         x="0 5.97756 11.95512 17.93268 23.91024 29.8878"
         y="0"
         id="tspan30">3FA695</tspan></text>
    <path
       id="path31"
       d="m 42.52023,-269.29478 h 56.69362 v 28.34679 H 42.52023 Z"
       style="fill:#42d7be;fill-opacity:1;fill-rule:nonzero;stroke:#31a18e;stroke-width:0.3985;stroke-linecap:butt;stroke-linejoin:miter;stroke-miterlimit:10;stroke-dasharray:none;stroke-opacity:1"
       transform="matrix(1.3333333,0,0,-1.3333333,56.958667,94.753333)" />
    <text
       id="text31"
       xml:space="preserve"
       transform="matrix(1.3333333,0,0,1.3333333,127.536,439.60667)"><tspan
         style="font-variant:normal;font-weight:normal;font-size:9.9626px;font-family:'PT Mono';writing-mode:lr-tb;fill:#216c5f;fill-opacity:1;fill-rule:nonzero;stroke:none"
         x="0 5.97756 11.95512 17.93268 23.91024 29.8878"
         y="0"
         id="tspan31">42D7BE</tspan></text>
    <path
       id="path32"
       d="m 113.3873,-269.29478 h 56.69362 v 28.34679 H 113.3873 Z"
       style="fill:#7ecec1;fill-opacity:1;fill-rule:nonzero;stroke:#5e9a91;stroke-width:0.3985;stroke-linecap:butt;stroke-linejoin:miter;stroke-miterlimit:10;stroke-dasharray:none;stroke-opacity:1"
       transform="matrix(1.3333333,0,0,-1.3333333,56.958667,94.753333)" />
    <text
       id="text32"
       xml:space="preserve"
       transform="matrix(1.3333333,0,0,1.3333333,222.024,439.58)"><tspan
         style="font-variant:normal;font-weight:normal;font-size:9.9626px;font-family:'PT Mono';writing-mode:lr-tb;fill:#3f6760;fill-opacity:1;fill-rule:nonzero;stroke:none"
         x="0 5.97756 11.95512 17.93268 23.91024 29.8878"
         y="0"
         id="tspan32">7ECEC1</tspan></text>
    <path
       id="path33"
       d="m 184.25433,-269.29478 h 56.69362 v 28.34679 h -56.69362 z"
       style="fill:#a3dcd2;fill-opacity:1;fill-rule:nonzero;stroke:#7aa59e;stroke-width:0.3985;stroke-linecap:butt;stroke-linejoin:miter;stroke-miterlimit:10;stroke-dasharray:none;stroke-opacity:1"
       transform="matrix(1.3333333,0,0,-1.3333333,56.958667,94.753333)" />
    <text
       id="text33"
       xml:space="preserve"
       transform="matrix(1.3333333,0,0,1.3333333,316.51333,439.58)"><tspan
         style="font-variant:normal;font-weight:normal;font-size:9.9626px;font-family:'PT Mono';writing-mode:lr-tb;fill:#516e69;fill-opacity:1;fill-rule:nonzero;stroke:none"
         x="0 5.97756 11.95512 17.93268 23.91024 29.8878"
         y="0"
         id="tspan33">A3DCD2</tspan></text>
  </g>
</svg>
